<svg width="7" height="7" viewBox="0 0 7 7" xmlns="http://www.w3.org/2000/svg">
<path d="M0 0.5203C0 0.125709 0.456438 -0.0936666 0.764562 0.152832L4.24655 2.93842C4.2956 2.97766 4.33443 3.02427 4.36305 3.07518C4.4432 3.21775 4.4432 3.39403 4.36305 3.5366C4.33443 3.58751 4.2956 3.63411 4.24655 3.67336L0.764563 6.45894C0.456439 6.70544 0 6.48607 0 6.09148V0.5203Z" fill="inherit"/>
<path d="M4.5 1C4.5 0.447716 4.94772 0 5.5 0C6.05228 0 6.5 0.447715 6.5 1V5.65C6.5 6.20228 6.05228 6.65 5.5 6.65C4.94772 6.65 4.5 6.20228 4.5 5.65V1Z" fill="inherit"/>
</svg>
