<svg width="7" height="7" viewBox="0 0 7 7" xmlns="http://www.w3.org/2000/svg">
<path d="M6.5 6.12969C6.5 6.52429 6.04356 6.74366 5.73544 6.49716L2.25345 3.71157C2.2044 3.67233 2.16557 3.62572 2.13695 3.57482C2.0568 3.43225 2.0568 3.25597 2.13695 3.11339C2.16557 3.06249 2.2044 3.01588 2.25345 2.97664L5.73544 0.191051C6.04356 -0.0554486 6.5 0.163927 6.5 0.558518L6.5 6.12969Z" fill="inherit"/>
<path d="M2 5.64999C2 6.20228 1.55228 6.64999 1 6.64999C0.447715 6.64999 0 6.20228 0 5.64999L0 0.999995C0 0.44771 0.447715 -6.19888e-06 1 -6.19888e-06C1.55228 -6.19888e-06 2 0.447709 2 0.999994L2 5.64999Z" fill="inherit"/>
</svg>
