<svg width="16" height="16" viewBox="0 0 16 16" fill="none" xmlns="http://www.w3.org/2000/svg">
<path d="M7.34368 0.316635C5.78608 0.427035 4.3144 0.976475 3.088 1.90848C1.57968 3.05408 0.52 4.7416 0.1496 6.58112C0.03184 7.16496 0.0024 7.48128 0 8.13872C0 8.7592 0.01712 8.99471 0.1104 9.52463C0.61328 12.4115 2.74464 14.8178 5.55312 15.664C6.68384 16.0074 7.97648 16.0907 9.10976 15.8995C10.7973 15.6149 12.2616 14.8498 13.4538 13.6307C14.6507 12.4043 15.3866 10.8909 15.6221 9.16655C15.6784 8.75695 15.6981 7.96463 15.6613 7.53535C15.5264 5.93359 14.9451 4.46927 13.9566 3.24287C12.6688 1.64111 10.844 0.625756 8.78112 0.363196C8.49168 0.326396 7.616 0.296955 7.34368 0.316635ZM7.2824 4.47168C9.4016 4.55504 11.2168 4.97199 12.7032 5.71519C13.341 6.03407 13.4782 6.15183 13.5642 6.45599C13.6598 6.77727 13.4906 7.13536 13.1669 7.29488C13.0712 7.34144 13.0075 7.35375 12.8504 7.35375H12.6542L12.3354 7.17968C11.1629 6.53696 9.74768 6.14703 7.96928 5.97775C7.42224 5.92623 6.07808 5.91887 5.55328 5.96303C4.81504 6.02927 4.02512 6.16655 3.41936 6.33583C3.17648 6.40447 2.98272 6.39231 2.80608 6.29663C2.36704 6.05631 2.28608 5.48224 2.64176 5.12672C2.76928 4.9992 2.87232 4.95744 3.33584 4.83968C4.1992 4.62624 5.03312 4.51103 6.0192 4.47423C6.2816 4.46191 6.5368 4.45455 6.58336 4.45215C6.62992 4.44959 6.9464 4.45952 7.2824 4.47168ZM7.60128 7.20912C9.05824 7.33664 10.4442 7.71936 11.624 8.32272C12.2421 8.63904 12.3893 8.75936 12.4603 9.00464C12.5339 9.25728 12.4358 9.51968 12.2053 9.6816C12.1194 9.74288 12.0704 9.75759 11.9282 9.76495C11.732 9.77727 11.6952 9.76495 11.3664 9.57615C10.3067 8.97279 8.9504 8.568 7.53008 8.43312C7.08128 8.39136 6.0216 8.38399 5.6144 8.42079C5.02576 8.47471 4.36592 8.59248 3.87536 8.73232C3.47552 8.84512 3.20336 8.77408 3.03888 8.50912C2.97264 8.40112 2.96528 8.36688 2.96528 8.18784C2.96528 8.0088 2.97264 7.97439 3.03888 7.86655C3.13456 7.71455 3.2792 7.62624 3.55648 7.54768C4.82464 7.1968 6.1688 7.084 7.60128 7.20912ZM7.80976 9.78208C8.66576 9.88752 9.44096 10.0862 10.1645 10.383C10.7114 10.6086 11.256 10.908 11.3835 11.0552C11.6509 11.3594 11.4595 11.8205 11.0549 11.8499C10.925 11.8597 10.8955 11.8499 10.7286 11.7592C10.059 11.3936 9.5856 11.1875 9.07296 11.0379C8.23648 10.795 7.55456 10.7019 6.62016 10.7019C5.80336 10.7019 5.08464 10.7755 4.30224 10.9398C4.06672 10.9914 3.81904 11.0306 3.7504 11.0331C3.50512 11.0331 3.3016 10.8491 3.27696 10.6064C3.25248 10.3538 3.39472 10.1526 3.64496 10.0766C3.98096 9.97599 5.11904 9.79696 5.74944 9.748C6.164 9.71344 7.44192 9.73552 7.80976 9.78208Z" fill="#1ED760"/>
</svg>
